{
  "accessors": [
    {
      "bufferView": 2,
      "componentType": 5126,
      "count": 1260,
      "max": [
        -42.006717681884766,
        89.4043960571289,
        17.155941009521484
      ],
      "min": [
        -53.98786163330078,
        70.64498901367188,
        -22.438556671142578
      ],
      "type": "VEC3"
    },
    {
      "bufferView": 2,
      "byteOffset": 15120,
      "componentType": 5126,
      "count": 1260,
      "max": [
        1.0,
        1.0,
        1.0
      ],
      "min": [
        -1.0,
        -1.0,
        -1.0
      ],
      "type": "VEC3"
    },
    {
      "bufferView": 1,
      "componentType": 5126,
      "count": 1260,
      "max": [
        0.7294468879699707,
        0.7729244232177734
      ],
      "min": [
        0.0,
        0.0
      ],
      "type": "VEC2"
    },
    {
      "bufferView": 1,
      "byteOffset": 10080,
      "componentType": 5126,
      "count": 1260,
      "max": [
        0.958436131477356,
        0.9559226036071777
      ],
      "min": [
        0.02544219419360161,
        0.022928789258003235
      ],
      "type": "VEC2"
    },
    {
      "bufferView": 0,
      "componentType": 5125,
      "count": 5760,
      "type": "SCALAR"
    },
    {
      "bufferView": 2,
      "byteOffset": 30240,
      "componentType": 5126,
      "count": 1890,
      "max": [
        -0.5427212715148926,
        95.52883911132813,
        25.722856521606445
      ],
      "min": [
        -144.1448211669922,
        -49.74607849121094,
        -29.793134689331055
      ],
      "type": "VEC3"
    },
    {
      "bufferView": 2,
      "byteOffset": 52920,
      "componentType": 5126,
      "count": 1890,
      "max": [
        1.0,
        1.0,
        1.0
      ],
      "min": [
        -1.0,
        -1.0,
        -1.0
      ],
      "type": "VEC3"
    },
    {
      "bufferView": 3,
      "componentType": 5126,
      "count": 1890,
      "max": [
        1.0,
        1.0,
        1.0,
        1.0
      ],
      "min": [
        -1.0,
        -1.0,
        -1.0,
        1.0
      ],
      "type": "VEC4"
    },
    {
      "bufferView": 1,
      "byteOffset": 20160,
      "componentType": 5126,
      "count": 1890,
      "max": [
        1.0,
        1.0
      ],
      "min": [
        0.0,
        0.0
      ],
      "type": "VEC2"
    },
    {
      "bufferView": 1,
      "byteOffset": 35280,
      "componentType": 5126,
      "count": 1890,
      "max": [
        0.0,
        0.0
      ],
      "min": [
        0.0,
        0.0
      ],
      "type": "VEC2"
    },
    {
      "bufferView": 1,
      "byteOffset": 50400,
      "componentType": 5126,
      "count": 1890,
      "max": [
        1.0,
        1.0
      ],
      "min": [
        0.0,
        0.0
      ],
      "type": "VEC2"
    },
    {
      "bufferView": 1,
      "byteOffset": 65520,
      "componentType": 5126,
      "count": 1890,
      "max": [
        1.0,
        1.0
      ],
      "min": [
        0.0,
        0.0
      ],
      "type": "VEC2"
    },
    {
      "bufferView": 1,
      "byteOffset": 80640,
      "componentType": 5126,
      "count": 1890,
      "max": [
        1.0,
        1.0
      ],
      "min": [
        0.0,
        0.0
      ],
      "type": "VEC2"
    },
    {
      "bufferView": 0,
      "byteOffset": 23040,
      "componentType": 5125,
      "count": 2772,
      "type": "SCALAR"
    },
    {
      "bufferView": 2,
      "byteOffset": 75600,
      "componentType": 5126,
      "count": 126,
      "max": [
        -98.7174301147461,
        -44.20466232299805,
        18.86591911315918
      ],
      "min": [
        -125.47233581542969,
        -45.351314544677734,
        -22.7952880859375
      ],
      "type": "VEC3"
    },
    {
      "bufferView": 2,
      "byteOffset": 77112,
      "componentType": 5126,
      "count": 126,
      "max": [
        0.7321823835372925,
        1.0,
        0.7282025218009949
      ],
      "min": [
        -0.721530556678772,
        -1.0,
        -0.7282025218009949
      ],
      "type": "VEC3"
    },
    {
      "bufferView": 1,
      "byteOffset": 95760,
      "componentType": 5126,
      "count": 126,
      "max": [
        0.9849299788475037,
        0.8264390230178833
      ],
      "min": [
        0.0,
        0.0
      ],
      "type": "VEC2"
    },
    {
      "bufferView": 1,
      "byteOffset": 96768,
      "componentType": 5126,
      "count": 126,
      "max": [
        0.0,
        0.0
      ],
      "min": [
        0.0,
        0.0
      ],
      "type": "VEC2"
    },
    {
      "bufferView": 0,
      "byteOffset": 34128,
      "componentType": 5125,
      "count": 228,
      "type": "SCALAR"
    },
    {
      "bufferView": 2,
      "byteOffset": 78624,
      "componentType": 5126,
      "count": 1372,
      "max": [
        -85.11241149902344,
        -22.892423629760742,
        6.505466938018799
      ],
      "min": [
        -102.24114990234375,
        -39.258514404296875,
        -10.43485164642334
      ],
      "type": "VEC3"
    },
    {
      "bufferView": 2,
      "byteOffset": 95088,
      "componentType": 5126,
      "count": 1372,
      "max": [
        0.9977238774299622,
        0.9938516020774841,
        0.9991635084152222
      ],
      "min": [
        -0.9961568117141724,
        -0.9938516020774841,
        -0.9991635084152222
      ],
      "type": "VEC3"
    },
    {
      "bufferView": 1,
      "byteOffset": 97776,
      "componentType": 5126,
      "count": 1372,
      "max": [
        0.5528883934020996,
        0.5528883934020996
      ],
      "min": [
        0.4471116065979004,
        0.4471116065979004
      ],
      "type": "VEC2"
    },
    {
      "bufferView": 1,
      "byteOffset": 108752,
      "componentType": 5126,
      "count": 1372,
      "max": [
        0.0,
        0.0
      ],
      "min": [
        0.0,
        0.0
      ],
      "type": "VEC2"
    },
    {
      "bufferView": 0,
      "byteOffset": 35040,
      "componentType": 5125,
      "count": 3600,
      "type": "SCALAR"
    },
    {
      "bufferView": 2,
      "byteOffset": 111552,
      "componentType": 5126,
      "count": 3053,
      "max": [
        -99.58673858642578,
        -22.09128189086914,
        7.019497871398926
      ],
      "min": [
        -103.3512954711914,
        -44.20051193237305,
        -10.948873519897461
      ],
      "type": "VEC3"
    },
    {
      "bufferView": 2,
      "byteOffset": 148188,
      "componentType": 5126,
      "count": 3053,
      "max": [
        1.0,
        1.0,
        1.0
      ],
      "min": [
        -1.0,
        -1.0,
        -1.0
      ],
      "type": "VEC3"
    },
    {
      "bufferView": 1,
      "byteOffset": 119728,
      "componentType": 5126,
      "count": 3053,
      "max": [
        0.5312395095825195,
        0.34917542338371277
      ],
      "min": [
        0.5205141305923462,
        0.33845004439353943
      ],
      "type": "VEC2"
    },
    {
      "bufferView": 1,
      "byteOffset": 144152,
      "componentType": 5126,
      "count": 3053,
      "max": [
        0.0,
        0.0
      ],
      "min": [
        0.0,
        0.0
      ],
      "type": "VEC2"
    },
    {
      "bufferView": 0,
      "byteOffset": 49440,
      "componentType": 5125,
      "count": 7500,
      "type": "SCALAR"
    },
    {
      "bufferView": 2,
      "byteOffset": 184824,
      "componentType": 5126,
      "count": 547,
      "max": [
        -3.0986220836639404,
        92.36997985839844,
        23.47719955444336
      ],
      "min": [
        -141.90536499023438,
        -48.45488739013672,
        -27.527481079101563
      ],
      "type": "VEC3"
    },
    {
      "bufferView": 2,
      "byteOffset": 191388,
      "componentType": 5126,
      "count": 547,
      "max": [
        1.0,
        1.0,
        1.0
      ],
      "min": [
        -1.0,
        -1.0,
        -1.0
      ],
      "type": "VEC3"
    },
    {
      "bufferView": 3,
      "byteOffset": 30240,
      "componentType": 5126,
      "count": 547,
      "max": [
        1.0,
        1.0,
        1.0,
        1.0
      ],
      "min": [
        -1.0,
        -1.0,
        -1.0,
        1.0
      ],
      "type": "VEC4"
    },
    {
      "bufferView": 1,
      "byteOffset": 168576,
      "componentType": 5126,
      "count": 547,
      "max": [
        0.9805736541748047,
        0.9779911637306213
      ],
      "min": [
        0.026930421590805054,
        0.040607988834381104
      ],
      "type": "VEC2"
    },
    {
      "bufferView": 1,
      "byteOffset": 172952,
      "componentType": 5126,
      "count": 547,
      "max": [
        0.0,
        0.0
      ],
      "min": [
        0.0,
        0.0
      ],
      "type": "VEC2"
    },
    {
      "bufferView": 1,
      "byteOffset": 177328,
      "componentType": 5126,
      "count": 547,
      "max": [
        0.9805736541748047,
        0.9779911637306213
      ],
      "min": [
        0.026930421590805054,
        0.040607988834381104
      ],
      "type": "VEC2"
    },
    {
      "bufferView": 1,
      "byteOffset": 181704,
      "componentType": 5126,
      "count": 547,
      "max": [
        0.9805736541748047,
        0.9779911637306213
      ],
      "min": [
        0.026930421590805054,
        0.040607988834381104
      ],
      "type": "VEC2"
    },
    {
      "bufferView": 1,
      "byteOffset": 186080,
      "componentType": 5126,
      "count": 547,
      "max": [
        0.9805736541748047,
        0.9779911637306213
      ],
      "min": [
        0.026930421590805054,
        0.040607988834381104
      ],
      "type": "VEC2"
    },
    {
      "bufferView": 0,
      "byteOffset": 79440,
      "componentType": 5125,
      "count": 798,
      "type": "SCALAR"
    },
    {
      "bufferView": 2,
      "byteOffset": 197952,
      "componentType": 5126,
      "count": 68,
      "max": [
        -72.52882385253906,
        47.1286506652832,
        22.127431869506836
      ],
      "min": [
        -142.06980895996094,
        -46.478309631347656,
        -26.12444305419922
      ],
      "type": "VEC3"
    },
    {
      "bufferView": 2,
      "byteOffset": 198768,
      "componentType": 5126,
      "count": 68,
      "max": [
        1.0,
        3.36632268727044e-07,
        1.0
      ],
      "min": [
        -0.9979794025421143,
        -3.260371670421591e-07,
        -1.0
      ],
      "type": "VEC3"
    },
    {
      "bufferView": 1,
      "byteOffset": 190456,
      "componentType": 5126,
      "count": 68,
      "max": [
        0.9904599785804749,
        1.0
      ],
      "min": [
        0.0,
        0.0
      ],
      "type": "VEC2"
    },
    {
      "bufferView": 1,
      "byteOffset": 191000,
      "componentType": 5126,
      "count": 68,
      "max": [
        0.0,
        0.0
      ],
      "min": [
        0.0,
        0.0
      ],
      "type": "VEC2"
    },
    {
      "bufferView": 0,
      "byteOffset": 82632,
      "componentType": 5125,
      "count": 102,
      "type": "SCALAR"
    },
    {
      "bufferView": 2,
      "byteOffset": 199584,
      "componentType": 5126,
      "count": 2143,
      "max": [
        25.205421447753906,
        25.205427169799805,
        23.650371551513672
      ],
      "min": [
        -25.205448150634766,
        -25.20543670654297,
        -26.76046371459961
      ],
      "type": "VEC3"
    },
    {
      "bufferView": 2,
      "byteOffset": 225300,
      "componentType": 5126,
      "count": 2143,
      "max": [
        1.0,
        1.0,
        0.9987944960594177
      ],
      "min": [
        -1.0,
        -0.9987966418266296,
        -0.9987944960594177
      ],
      "type": "VEC3"
    },
    {
      "bufferView": 1,
      "byteOffset": 191544,
      "componentType": 5126,
      "count": 2143,
      "max": [
        1.0000009536743164,
        1.0
      ],
      "min": [
        0.0,
        0.0
      ],
      "type": "VEC2"
    },
    {
      "bufferView": 0,
      "byteOffset": 83040,
      "componentType": 5125,
      "count": 11904,
      "type": "SCALAR"
    }
  ],
  "asset": {
    "extras": {
      "author": "LordSamueliSolo (https://sketchfab.com/LadyLionStudios)",
      "license": "CC-BY-4.0 (http://creativecommons.org/licenses/by/4.0/)",
      "source": "https://sketchfab.com/3d-models/basketball-arcade-blend-free-low-poly-v10-ed85ea4375724b21b0a696f7f5a8d0dc",
      "title": "Basketball Arcade .Blend FREE Low Poly (v1.0)"
    },
    "generator": "Sketchfab-12.68.0",
    "version": "2.0"
  },
  "bufferViews": [
    {
      "buffer": 0,
      "byteLength": 130656,
      "name": "floatBufferViews",
      "target": 34963
    },
    {
      "buffer": 0,
      "byteLength": 208688,
      "byteOffset": 130656,
      "byteStride": 8,
      "name": "floatBufferViews",
      "target": 34962
    },
    {
      "buffer": 0,
      "byteLength": 251016,
      "byteOffset": 339344,
      "byteStride": 12,
      "name": "floatBufferViews",
      "target": 34962
    },
    {
      "buffer": 0,
      "byteLength": 38992,
      "byteOffset": 590360,
      "byteStride": 16,
      "name": "floatBufferViews",
      "target": 34962
    }
  ],
  "buffers": [
    {
      "byteLength": 629352,
      "uri": "scene.bin"
    }
  ],
  "images": [
    {
      "uri": "textures/BasketBall_baseColor.png"
    },
    {
      "uri": "textures/MetalFrame_baseColor.jpeg"
    },
    {
      "uri": "textures/MetalFrame_metallicRoughness.png"
    },
    {
      "uri": "textures/MetalFrame_normal.jpeg"
    },
    {
      "uri": "textures/BasketballBase_baseColor.jpeg"
    },
    {
      "uri": "textures/WoodPaint_baseColor.jpeg"
    },
    {
      "uri": "textures/WoodPaint_metallicRoughness.png"
    },
    {
      "uri": "textures/WoodPaint_normal.jpeg"
    },
    {
      "uri": "textures/Netting_baseColor.png"
    },
    {
      "uri": "textures/Backdrop_baseColor.png"
    }
  ],
  "materials": [
    {
      "doubleSided": true,
      "name": "BasketBall",
      "pbrMetallicRoughness": {
        "baseColorTexture": {
          "index": 0
        }
      }
    },
    {
      "doubleSided": true,
      "name": "MetalFrame",
      "normalTexture": {
        "index": 3
      },
      "pbrMetallicRoughness": {
        "baseColorTexture": {
          "index": 1
        },
        "metallicRoughnessTexture": {
          "index": 2
        },
        "roughnessFactor": 0.0
      }
    },
    {
      "doubleSided": true,
      "name": "BasketballBase",
      "pbrMetallicRoughness": {
        "baseColorTexture": {
          "index": 4
        },
        "roughnessFactor": 0.4265243292
      }
    },
    {
      "doubleSided": true,
      "name": "BasketballNet",
      "pbrMetallicRoughness": {
        "baseColorTexture": {
          "index": 4
        }
      }
    },
    {
      "doubleSided": true,
      "name": "BasketballOrangeMetal",
      "pbrMetallicRoughness": {
        "baseColorTexture": {
          "index": 4
        },
        "roughnessFactor": 0.0
      }
    },
    {
      "doubleSided": true,
      "name": "WoodPaint",
      "normalTexture": {
        "index": 7
      },
      "pbrMetallicRoughness": {
        "baseColorTexture": {
          "index": 5
        },
        "metallicRoughnessTexture": {
          "index": 6
        },
        "roughnessFactor": 0.0
      }
    },
    {
      "alphaMode": "MASK",
      "doubleSided": true,
      "name": "Netting",
      "pbrMetallicRoughness": {
        "baseColorTexture": {
          "index": 8
        }
      }
    },
    {
      "doubleSided": true,
      "name": "Backdrop",
      "pbrMetallicRoughness": {
        "baseColorTexture": {
          "index": 9
        },
        "roughnessFactor": 0.5236340996
      }
    }
  ],
  "meshes": [
    {
      "name": "Object_0",
      "primitives": [
        {
          "attributes": {
            "NORMAL": 1,
            "POSITION": 0,
            "TEXCOORD_0": 2,
            "TEXCOORD_1": 3
          },
          "indices": 4,
          "material": 0,
          "mode": 4
        }
      ]
    },
    {
      "name": "Object_1",
      "primitives": [
        {
          "attributes": {
            "NORMAL": 6,
            "POSITION": 5,
            "TANGENT": 7,
            "TEXCOORD_0": 8,
            "TEXCOORD_1": 9,
            "TEXCOORD_2": 10,
            "TEXCOORD_3": 11,
            "TEXCOORD_4": 12
          },
          "indices": 13,
          "material": 1,
          "mode": 4
        }
      ]
    },
    {
      "name": "Object_2",
      "primitives": [
        {
          "attributes": {
            "NORMAL": 15,
            "POSITION": 14,
            "TEXCOORD_0": 16,
            "TEXCOORD_1": 17
          },
          "indices": 18,
          "material": 2,
          "mode": 4
        }
      ]
    },
    {
      "name": "Object_3",
      "primitives": [
        {
          "attributes": {
            "NORMAL": 20,
            "POSITION": 19,
            "TEXCOORD_0": 21,
            "TEXCOORD_1": 22
          },
          "indices": 23,
          "material": 3,
          "mode": 4
        }
      ]
    },
    {
      "name": "Object_4",
      "primitives": [
        {
          "attributes": {
            "NORMAL": 25,
            "POSITION": 24,
            "TEXCOORD_0": 26,
            "TEXCOORD_1": 27
          },
          "indices": 28,
          "material": 4,
          "mode": 4
        }
      ]
    },
    {
      "name": "Object_5",
      "primitives": [
        {
          "attributes": {
            "NORMAL": 30,
            "POSITION": 29,
            "TANGENT": 31,
            "TEXCOORD_0": 32,
            "TEXCOORD_1": 33,
            "TEXCOORD_2": 34,
            "TEXCOORD_3": 35,
            "TEXCOORD_4": 36
          },
          "indices": 37,
          "material": 5,
          "mode": 4
        }
      ]
    },
    {
      "name": "Object_6",
      "primitives": [
        {
          "attributes": {
            "NORMAL": 39,
            "POSITION": 38,
            "TEXCOORD_0": 40,
            "TEXCOORD_1": 41
          },
          "indices": 42,
          "material": 6,
          "mode": 4
        }
      ]
    },
    {
      "name": "Object_7",
      "primitives": [
        {
          "attributes": {
            "NORMAL": 44,
            "POSITION": 43,
            "TEXCOORD_0": 45
          },
          "indices": 46,
          "material": 7,
          "mode": 4
        }
      ]
    }
  ],
  "nodes": [
    {
      "children": [
        1
      ],
      "matrix": [
        1.0,
        0.0,
        0.0,
        0.0,
        0.0,
        2.220446049250313e-16,
        -1.0,
        0.0,
        0.0,
        1.0,
        2.220446049250313e-16,
        0.0,
        0.0,
        0.0,
        0.0,
        1.0
      ],
      "name": "Sketchfab_model"
    },
    {
      "children": [
        2
      ],
      "name": "root"
    },
    {
      "children": [
        3,
        11
      ],
      "matrix": [
        1.0,
        0.0,
        0.0,
        0.0,
        0.0,
        2.220446049250313e-16,
        1.0,
        0.0,
        0.0,
        -1.0,
        2.220446049250313e-16,
        0.0,
        0.0,
        0.0,
        0.0,
        1.0
      ],
      "name": "GLTF_SceneRootNode"
    },
    {
      "children": [
        4,
        5,
        6,
        7,
        8,
        9,
        10
      ],
      "matrix": [
        1.685873969314855e-07,
        -0.9999999999999857,
        -0.0,
        0.0,
        0.9999999999999857,
        1.685873969314855e-07,
        0.0,
        0.0,
        0.0,
        -0.0,
        1.0,
        0.0,
        0.0,
        0.0,
        0.0,
        1.0
      ],
      "name": "Sphere.000_0"
    },
    {
      "mesh": 0,
      "name": "Object_4"
    },
    {
      "mesh": 1,
      "name": "Object_5"
    },
    {
      "mesh": 2,
      "name": "Object_6"
    },
    {
      "mesh": 3,
      "name": "Object_7"
    },
    {
      "mesh": 4,
      "name": "Object_8"
    },
    {
      "mesh": 5,
      "name": "Object_9"
    },
    {
      "mesh": 6,
      "name": "Object_10"
    },
    {
      "children": [
        12
      ],
      "matrix": [
        23.495285034179688,
        0.0,
        0.0,
        0.0,
        0.0,
        -3.961008944075642e-06,
        23.495285034179354,
        0.0,
        0.0,
        -23.495285034179354,
        -3.961008944075642e-06,
        0.0,
        0.0,
        0.0,
        0.0,
        1.0
      ],
      "name": "Sphere_1"
    },
    {
      "mesh": 7,
      "name": "Object_12"
    }
  ],
  "samplers": [
    {
      "magFilter": 9729,
      "minFilter": 9987,
      "wrapS": 10497,
      "wrapT": 10497
    }
  ],
  "scene": 0,
  "scenes": [
    {
      "name": "Sketchfab_Scene",
      "nodes": [
        0
      ]
    }
  ],
  "textures": [
    {
      "sampler": 0,
      "source": 0
    },
    {
      "sampler": 0,
      "source": 1
    },
    {
      "sampler": 0,
      "source": 2
    },
    {
      "sampler": 0,
      "source": 3
    },
    {
      "sampler": 0,
      "source": 4
    },
    {
      "sampler": 0,
      "source": 5
    },
    {
      "sampler": 0,
      "source": 6
    },
    {
      "sampler": 0,
      "source": 7
    },
    {
      "sampler": 0,
      "source": 8
    },
    {
      "sampler": 0,
      "source": 9
    }
  ]
}
