{
	"asset":{
		"generator":"Khronos glTF Blender I/O v3.5.30",
		"version":"2.0"
	},
	"scene":0,
	"scenes":[
		{
			"name":"Scene",
			"nodes":[
				23
			]
		}
	],
	"nodes":[
		{
			"mesh":0,
			"name":"2_Material #25_0"
		},
		{
			"children":[
				0
			],
			"name":"2",
			"scale":[
				10,
				9.999999046325684,
				9.999999046325684
			],
			"translation":[
				-3.3631327152252197,
				5.711558818817139,
				187.05230712890625
			]
		},
		{
			"mesh":1,
			"name":"Object001_Material #25_0"
		},
		{
			"children":[
				2
			],
			"name":"Object_7",
			"translation":[
				-30.881715774536133,
				-6.220537185668945,
				0
			]
		},
		{
			"children":[
				3
			],
			"name":"Object001",
			"scale":[
				10,
				9.999999046325684,
				9.999999046325684
			],
			"translation":[
				305.4540100097656,
				67.91693115234375,
				187.0523223876953
			]
		},
		{
			"mesh":2,
			"name":"Object002_Material #25_0"
		},
		{
			"children":[
				5
			],
			"name":"Object002",
			"scale":[
				10,
				9.999999046325684,
				9.999999046325684
			],
			"translation":[
				-3.3631327152252197,
				5.711558818817139,
				187.05230712890625
			]
		},
		{
			"mesh":3,
			"name":"Object003_Material #25_0"
		},
		{
			"children":[
				7
			],
			"name":"Object_12",
			"translation":[
				-30.881715774536133,
				-6.220537185668945,
				0
			]
		},
		{
			"children":[
				8
			],
			"name":"Object003",
			"scale":[
				10,
				9.999999046325684,
				9.999999046325684
			],
			"translation":[
				305.4540100097656,
				67.91693115234375,
				-99.46781921386719
			]
		},
		{
			"mesh":4,
			"name":"Object004_Material #25_0"
		},
		{
			"children":[
				10
			],
			"name":"Object004",
			"scale":[
				10,
				9.999999046325684,
				9.999999046325684
			],
			"translation":[
				-3.3631327152252197,
				5.711558818817139,
				-99.46783447265625
			]
		},
		{
			"name":"Object005",
			"scale":[
				10,
				9.999999046325684,
				9.999999046325684
			],
			"translation":[
				65.09467315673828,
				445.53594970703125,
				7.629393803654239e-05
			]
		},
		{
			"name":"Object_18",
			"translation":[
				1.324411392211914,
				-22.308181762695312,
				18.73954963684082
			]
		},
		{
			"children":[
				13
			],
			"name":"Object006",
			"scale":[
				10,
				9.999999046325684,
				9.999999046325684
			],
			"translation":[
				-16.60724639892578,
				228.7934112548828,
				-0.3431396484375
			]
		},
		{
			"name":"Object_21",
			"translation":[
				1.1757144927978516,
				-22.308181762695312,
				18.73954963684082
			]
		},
		{
			"children":[
				15
			],
			"name":"Object007",
			"scale":[
				10,
				9.999999046325684,
				9.999999046325684
			],
			"translation":[
				-17.19788360595703,
				228.7934112548828,
				-0.3431396484375
			]
		},
		{
			"mesh":5,
			"name":"Object008_Material #25_0"
		},
		{
			"children":[
				17
			],
			"name":"Object_24",
			"translation":[
				-6.845780849456787,
				-43.98243713378906,
				18.705230712890625
			]
		},
		{
			"children":[
				18
			],
			"name":"Object008",
			"scale":[
				10,
				9.999999046325684,
				9.999999046325684
			],
			"translation":[
				63.970787048339844,
				445.53594970703125,
				7.629393803654239e-05
			]
		},
		{
			"children":[
				1,
				4,
				6,
				9,
				11,
				12,
				14,
				16,
				19
			],
			"name":"RootNode"
		},
		{
			"children":[
				20
			],
			"name":"Object_2"
		},
		{
			"children":[
				21
			],
			"name":"arcade_unit.FBX",
			"rotation":[
				0.70710688829422,
				0,
				0,
				0.7071066498756409
			]
		},
		{
			"children":[
				22
			],
			"name":"Sketchfab_model",
			"rotation":[
				-0.70710688829422,
				0,
				0,
				0.7071066498756409
			]
		}
	],
	"animations":[
		{
			"channels":[
				{
					"sampler":0,
					"target":{
						"node":14,
						"path":"translation"
					}
				},
				{
					"sampler":1,
					"target":{
						"node":19,
						"path":"translation"
					}
				}
			],
			"name":"idle",
			"samplers":[
				{
					"input":22,
					"interpolation":"LINEAR",
					"output":23
				},
				{
					"input":24,
					"interpolation":"LINEAR",
					"output":25
				}
			]
		}
	],
	"materials":[
		{
			"alphaMode":"BLEND",
			"doubleSided":true,
			"emissiveFactor":[
				0.8075230121612549,
				0.8075230121612549,
				0.8075230121612549
			],
			"emissiveTexture":{
				"index":0
			},
			"name":"Material_25",
			"normalTexture":{
				"index":1
			},
			"occlusionTexture":{
				"index":2
			},
			"pbrMetallicRoughness":{
				"baseColorTexture":{
					"index":3
				},
				"metallicRoughnessTexture":{
					"index":2
				},
				"roughnessFactor":0.7434911727905273
			}
		}
	],
	"meshes":[
		{
			"name":"2_Material #25_0",
			"primitives":[
				{
					"attributes":{
						"POSITION":0,
						"TEXCOORD_0":1,
						"NORMAL":2
					},
					"indices":3,
					"material":0
				}
			]
		},
		{
			"name":"Object001_Material #25_0",
			"primitives":[
				{
					"attributes":{
						"POSITION":4,
						"TEXCOORD_0":5,
						"NORMAL":6
					},
					"indices":7,
					"material":0
				}
			]
		},
		{
			"name":"Object002_Material #25_0",
			"primitives":[
				{
					"attributes":{
						"POSITION":8,
						"TEXCOORD_0":9,
						"NORMAL":10
					},
					"indices":11,
					"material":0
				}
			]
		},
		{
			"name":"Object003_Material #25_0",
			"primitives":[
				{
					"attributes":{
						"POSITION":12,
						"TEXCOORD_0":13,
						"NORMAL":14
					},
					"indices":7,
					"material":0
				}
			]
		},
		{
			"name":"Object004_Material #25_0",
			"primitives":[
				{
					"attributes":{
						"POSITION":15,
						"TEXCOORD_0":16,
						"NORMAL":17
					},
					"indices":11,
					"material":0
				}
			]
		},
		{
			"name":"Object008_Material #25_0",
			"primitives":[
				{
					"attributes":{
						"POSITION":18,
						"TEXCOORD_0":19,
						"NORMAL":20
					},
					"indices":21,
					"material":0
				}
			]
		}
	],
	"textures":[
		{
			"sampler":0,
			"source":0
		},
		{
			"sampler":0,
			"source":1
		},
		{
			"sampler":0,
			"source":2
		},
		{
			"sampler":0,
			"source":3
		}
	],
	"images":[
		{
			"mimeType":"image/jpeg",
			"name":"Material_25_emissive",
			"uri":"Material_25_emissive.jpg"
		},
		{
			"mimeType":"image/png",
			"name":"Material_25_normal",
			"uri":"Material_25_normal.png"
		},
		{
			"mimeType":"image/png",
			"name":"Material_25_metallicRoughness",
			"uri":"Material_25_metallicRoughness.png"
		},
		{
			"mimeType":"image/png",
			"name":"Material_25_baseColor",
			"uri":"Material_25_baseColor.png"
		}
	],
	"accessors":[
		{
			"bufferView":0,
			"componentType":5126,
			"count":5999,
			"max":[
				33.843780517578125,
				50.343727111816406,
				2.5000007152557373
			],
			"min":[
				-26.3829345703125,
				-54.10858154296875,
				-39.91046142578125
			],
			"type":"VEC3"
		},
		{
			"bufferView":1,
			"componentType":5126,
			"count":5999,
			"type":"VEC2"
		},
		{
			"bufferView":2,
			"componentType":5126,
			"count":5999,
			"type":"VEC3"
		},
		{
			"bufferView":3,
			"componentType":5123,
			"count":12840,
			"type":"SCALAR"
		},
		{
			"bufferView":4,
			"componentType":5126,
			"count":1340,
			"max":[
				51.41374206542969,
				28.441356658935547,
				-2.4379072189331055
			],
			"min":[
				10.34968376159668,
				-16.000282287597656,
				-6.335548400878906
			],
			"type":"VEC3"
		},
		{
			"bufferView":5,
			"componentType":5126,
			"count":1340,
			"type":"VEC2"
		},
		{
			"bufferView":6,
			"componentType":5126,
			"count":1340,
			"type":"VEC3"
		},
		{
			"bufferView":7,
			"componentType":5123,
			"count":3978,
			"type":"SCALAR"
		},
		{
			"bufferView":8,
			"componentType":5126,
			"count":629,
			"max":[
				52.42306900024414,
				22.146682739257812,
				-2.7641830444335938
			],
			"min":[
				31.72233009338379,
				-39.96089553833008,
				-5.9768385887146
			],
			"type":"VEC3"
		},
		{
			"bufferView":9,
			"componentType":5126,
			"count":629,
			"type":"VEC2"
		},
		{
			"bufferView":10,
			"componentType":5126,
			"count":629,
			"type":"VEC3"
		},
		{
			"bufferView":11,
			"componentType":5123,
			"count":2088,
			"type":"SCALAR"
		},
		{
			"bufferView":12,
			"componentType":5126,
			"count":1340,
			"max":[
				51.41374206542969,
				28.441356658935547,
				-2.4379072189331055
			],
			"min":[
				10.34968376159668,
				-16.000282287597656,
				-6.335548400878906
			],
			"type":"VEC3"
		},
		{
			"bufferView":13,
			"componentType":5126,
			"count":1340,
			"type":"VEC2"
		},
		{
			"bufferView":14,
			"componentType":5126,
			"count":1340,
			"type":"VEC3"
		},
		{
			"bufferView":15,
			"componentType":5126,
			"count":629,
			"max":[
				52.42306900024414,
				22.146682739257812,
				-2.7641830444335938
			],
			"min":[
				31.72233009338379,
				-39.96089553833008,
				-5.9768385887146
			],
			"type":"VEC3"
		},
		{
			"bufferView":16,
			"componentType":5126,
			"count":629,
			"type":"VEC2"
		},
		{
			"bufferView":17,
			"componentType":5126,
			"count":629,
			"type":"VEC3"
		},
		{
			"bufferView":18,
			"componentType":5126,
			"count":4,
			"max":[
				6.886383533477783,
				49.639122009277344,
				0.294769287109375
			],
			"min":[
				6.805178165435791,
				38.325748443603516,
				-37.705230712890625
			],
			"type":"VEC3"
		},
		{
			"bufferView":19,
			"componentType":5126,
			"count":4,
			"type":"VEC2"
		},
		{
			"bufferView":20,
			"componentType":5126,
			"count":4,
			"type":"VEC3"
		},
		{
			"bufferView":21,
			"componentType":5123,
			"count":6,
			"type":"SCALAR"
		},
		{
			"bufferView":22,
			"componentType":5126,
			"count":39,
			"max":[
				1.5833333333333333
			],
			"min":[
				0
			],
			"type":"SCALAR"
		},
		{
			"bufferView":23,
			"componentType":5126,
			"count":39,
			"type":"VEC3"
		},
		{
			"bufferView":24,
			"componentType":5126,
			"count":37,
			"max":[
				1.5
			],
			"min":[
				0
			],
			"type":"SCALAR"
		},
		{
			"bufferView":25,
			"componentType":5126,
			"count":37,
			"type":"VEC3"
		}
	],
	"bufferViews":[
		{
			"buffer":0,
			"byteLength":71988,
			"byteOffset":0,
			"target":34962
		},
		{
			"buffer":0,
			"byteLength":47992,
			"byteOffset":71988,
			"target":34962
		},
		{
			"buffer":0,
			"byteLength":71988,
			"byteOffset":119980,
			"target":34962
		},
		{
			"buffer":0,
			"byteLength":25680,
			"byteOffset":191968,
			"target":34963
		},
		{
			"buffer":0,
			"byteLength":16080,
			"byteOffset":217648,
			"target":34962
		},
		{
			"buffer":0,
			"byteLength":10720,
			"byteOffset":233728,
			"target":34962
		},
		{
			"buffer":0,
			"byteLength":16080,
			"byteOffset":244448,
			"target":34962
		},
		{
			"buffer":0,
			"byteLength":7956,
			"byteOffset":260528,
			"target":34963
		},
		{
			"buffer":0,
			"byteLength":7548,
			"byteOffset":268484,
			"target":34962
		},
		{
			"buffer":0,
			"byteLength":5032,
			"byteOffset":276032,
			"target":34962
		},
		{
			"buffer":0,
			"byteLength":7548,
			"byteOffset":281064,
			"target":34962
		},
		{
			"buffer":0,
			"byteLength":4176,
			"byteOffset":288612,
			"target":34963
		},
		{
			"buffer":0,
			"byteLength":16080,
			"byteOffset":292788,
			"target":34962
		},
		{
			"buffer":0,
			"byteLength":10720,
			"byteOffset":308868,
			"target":34962
		},
		{
			"buffer":0,
			"byteLength":16080,
			"byteOffset":319588,
			"target":34962
		},
		{
			"buffer":0,
			"byteLength":7548,
			"byteOffset":335668,
			"target":34962
		},
		{
			"buffer":0,
			"byteLength":5032,
			"byteOffset":343216,
			"target":34962
		},
		{
			"buffer":0,
			"byteLength":7548,
			"byteOffset":348248,
			"target":34962
		},
		{
			"buffer":0,
			"byteLength":48,
			"byteOffset":355796,
			"target":34962
		},
		{
			"buffer":0,
			"byteLength":32,
			"byteOffset":355844,
			"target":34962
		},
		{
			"buffer":0,
			"byteLength":48,
			"byteOffset":355876,
			"target":34962
		},
		{
			"buffer":0,
			"byteLength":12,
			"byteOffset":355924,
			"target":34963
		},
		{
			"buffer":0,
			"byteLength":156,
			"byteOffset":355936
		},
		{
			"buffer":0,
			"byteLength":468,
			"byteOffset":356092
		},
		{
			"buffer":0,
			"byteLength":148,
			"byteOffset":356560
		},
		{
			"buffer":0,
			"byteLength":444,
			"byteOffset":356708
		}
	],
	"samplers":[
		{
			"magFilter":9729,
			"minFilter":9987
		}
	],
	"buffers":[
		{
			"byteLength":357152,
			"uri":"DuckHunt.bin"
		}
	]
}
