{
  "accessors": [
    {
      "bufferView": 2,
      "componentType": 5126,
      "count": 64,
      "max": [
        4.515420913696289,
        3.8617610931396484,
        22.78777503967285
      ],
      "min": [
        -4.515420913696289,
        -3.8000800609588623,
        0.0
      ],
      "type": "VEC3"
    },
    {
      "bufferView": 2,
      "byteOffset": 768,
      "componentType": 5126,
      "count": 64,
      "max": [
        0.0,
        0.9999996423721313,
        0.9999454617500305
      ],
      "min": [
        0.0,
        -0.9999301433563232,
        -0.9485130906105042
      ],
      "type": "VEC3"
    },
    {
      "bufferView": 3,
      "componentType": 5126,
      "count": 64,
      "max": [
        0.021494785323739052,
        0.982556164264679,
        0.9999279379844666,
        1.0
      ],
      "min": [
        -0.9989750981330872,
        -0.9484930634498596,
        -0.957626223564148,
        1.0
      ],
      "type": "VEC4"
    },
    {
      "bufferView": 1,
      "componentType": 5126,
      "count": 64,
      "max": [
        0.9967229962348938,
        0.9600290060043335
      ],
      "min": [
        0.0019920000340789557,
        0.0022780001163482666
      ],
      "type": "VEC2"
    },
    {
      "bufferView": 0,
      "componentType": 5125,
      "count": 144,
      "type": "SCALAR"
    },
    {
      "bufferView": 2,
      "byteOffset": 1536,
      "componentType": 5126,
      "count": 4,
      "max": [
        4.515420913696289,
        0.7866169810295105,
        18.274803161621094
      ],
      "min": [
        -4.515420913696289,
        -0.35668298602104187,
        10.759061813354492
      ],
      "type": "VEC3"
    },
    {
      "bufferView": 2,
      "byteOffset": 1584,
      "componentType": 5126,
      "count": 4,
      "max": [
        0.0,
        -0.8982264399528503,
        0.43953320384025574
      ],
      "min": [
        0.0,
        -0.9866132140159607,
        -0.16307803988456726
      ],
      "type": "VEC3"
    },
    {
      "bufferView": 3,
      "byteOffset": 1024,
      "componentType": 5126,
      "count": 4,
      "max": [
        0.0040384093299508095,
        0.4395295977592468,
        0.986605167388916,
        1.0
      ],
      "min": [
        0.004024671856313944,
        -0.163076713681221,
        0.898219108581543,
        1.0
      ],
      "type": "VEC4"
    },
    {
      "bufferView": 1,
      "byteOffset": 512,
      "componentType": 5126,
      "count": 4,
      "max": [
        0.6630010008811951,
        0.940775990486145
      ],
      "min": [
        0.4911290109157562,
        0.7368749976158142
      ],
      "type": "VEC2"
    },
    {
      "bufferView": 0,
      "byteOffset": 576,
      "componentType": 5125,
      "count": 6,
      "type": "SCALAR"
    },
    {
      "bufferView": 2,
      "byteOffset": 1632,
      "componentType": 5126,
      "count": 137,
      "max": [
        5.131890773773193,
        -0.14509600400924683,
        10.83504867553711
      ],
      "min": [
        -5.131890773773193,
        -4.316871166229248,
        8.59565544128418
      ],
      "type": "VEC3"
    },
    {
      "bufferView": 2,
      "byteOffset": 3276,
      "componentType": 5126,
      "count": 137,
      "max": [
        0.9781954884529114,
        0.8140801191329956,
        0.9966816306114197
      ],
      "min": [
        -0.9781952500343323,
        -0.9829841256141663,
        -0.9962116479873657
      ],
      "type": "VEC3"
    },
    {
      "bufferView": 3,
      "byteOffset": 1088,
      "componentType": 5126,
      "count": 137,
      "max": [
        0.7423046231269836,
        0.997093915939331,
        0.9861752390861511,
        1.0
      ],
      "min": [
        -0.826157808303833,
        -0.9966613054275513,
        -0.9381954669952393,
        -1.0
      ],
      "type": "VEC4"
    },
    {
      "bufferView": 1,
      "byteOffset": 544,
      "componentType": 5126,
      "count": 137,
      "max": [
        0.814391016960144,
        0.8079349994659424
      ],
      "min": [
        0.011854000389575958,
        0.04177900031208992
      ],
      "type": "VEC2"
    },
    {
      "bufferView": 0,
      "byteOffset": 600,
      "componentType": 5125,
      "count": 498,
      "type": "SCALAR"
    },
    {
      "bufferView": 2,
      "byteOffset": 4920,
      "componentType": 5126,
      "count": 44,
      "max": [
        0.2273769974708557,
        -2.401293992996216,
        5.718171119689941
      ],
      "min": [
        -0.2273769974708557,
        -2.645482063293457,
        5.230391979217529
      ],
      "type": "VEC3"
    },
    {
      "bufferView": 2,
      "byteOffset": 5448,
      "componentType": 5126,
      "count": 44,
      "max": [
        0.731434166431427,
        -0.0,
        0.6819121837615967
      ],
      "min": [
        -0.731434166431427,
        -0.8983104825019836,
        -0.6819121837615967
      ],
      "type": "VEC3"
    },
    {
      "bufferView": 3,
      "byteOffset": 3280,
      "componentType": 5126,
      "count": 44,
      "max": [
        0.9467857480049133,
        1.0,
        0.6168612241744995,
        1.0
      ],
      "min": [
        -0.9394592046737671,
        -1.0,
        -0.6215738654136658,
        1.0
      ],
      "type": "VEC4"
    },
    {
      "bufferView": 1,
      "byteOffset": 1640,
      "componentType": 5126,
      "count": 44,
      "max": [
        0.9487059712409973,
        0.8183720111846924
      ],
      "min": [
        0.0018939999863505363,
        0.6747230291366577
      ],
      "type": "VEC2"
    },
    {
      "bufferView": 0,
      "byteOffset": 2592,
      "componentType": 5125,
      "count": 78,
      "type": "SCALAR"
    },
    {
      "bufferView": 2,
      "byteOffset": 5976,
      "componentType": 5126,
      "count": 437,
      "max": [
        1.7928659915924072,
        -1.934594988822937,
        6.294200897216797
      ],
      "min": [
        -1.7928659915924072,
        -2.5394530296325684,
        3.1745669841766357
      ],
      "type": "VEC3"
    },
    {
      "bufferView": 2,
      "byteOffset": 11220,
      "componentType": 5126,
      "count": 437,
      "max": [
        0.9897280931472778,
        0.9986225366592407,
        0.9824029803276062
      ],
      "min": [
        -0.9897280931472778,
        -1.0,
        -0.9958677887916565
      ],
      "type": "VEC3"
    },
    {
      "bufferView": 3,
      "byteOffset": 3984,
      "componentType": 5126,
      "count": 437,
      "max": [
        0.9911888241767883,
        0.9937045574188232,
        1.0,
        1.0
      ],
      "min": [
        -0.9940916895866394,
        -0.9937045574188232,
        -0.9996822476387024,
        1.0
      ],
      "type": "VEC4"
    },
    {
      "bufferView": 1,
      "byteOffset": 1992,
      "componentType": 5126,
      "count": 437,
      "max": [
        0.9480159878730774,
        0.9350590109825134
      ],
      "min": [
        0.0018939999863505363,
        0.0019920000340789557
      ],
      "type": "VEC2"
    },
    {
      "bufferView": 0,
      "byteOffset": 2904,
      "componentType": 5125,
      "count": 1461,
      "type": "SCALAR"
    },
    {
      "bufferView": 2,
      "byteOffset": 16464,
      "componentType": 5126,
      "count": 328,
      "max": [
        4.932267189025879,
        4.0581817626953125,
        23.09064292907715
      ],
      "min": [
        -4.932267189025879,
        -4.0581817626953125,
        0.0
      ],
      "type": "VEC3"
    },
    {
      "bufferView": 2,
      "byteOffset": 20400,
      "componentType": 5126,
      "count": 328,
      "max": [
        0.9986546039581299,
        0.10475896298885345,
        0.9253416061401367
      ],
      "min": [
        -0.9986546039581299,
        -0.13060995936393738,
        -0.4759801924228668
      ],
      "type": "VEC3"
    },
    {
      "bufferView": 3,
      "byteOffset": 10976,
      "componentType": 5126,
      "count": 328,
      "max": [
        0.9255809783935547,
        0.9998101592063904,
        0.9668328166007996,
        1.0
      ],
      "min": [
        -0.10475897043943405,
        -0.9998101592063904,
        -0.9742431044578552,
        -1.0
      ],
      "type": "VEC4"
    },
    {
      "bufferView": 1,
      "byteOffset": 5488,
      "componentType": 5126,
      "count": 328,
      "max": [
        0.9980080127716064,
        0.7204970121383667
      ],
      "min": [
        0.06707900017499924,
        0.0019160000374540687
      ],
      "type": "VEC2"
    },
    {
      "bufferView": 0,
      "byteOffset": 8748,
      "componentType": 5125,
      "count": 888,
      "type": "SCALAR"
    },
    {
      "bufferView": 2,
      "byteOffset": 24336,
      "componentType": 5126,
      "count": 4293,
      "max": [
        4.074157238006592,
        -1.4986419677734375,
        10.980162620544434
      ],
      "min": [
        -4.074157238006592,
        -3.399009943008423,
        9.329998970031738
      ],
      "type": "VEC3"
    },
    {
      "bufferView": 2,
      "byteOffset": 75852,
      "componentType": 5126,
      "count": 4293,
      "max": [
        0.9933906197547913,
        0.9439627528190613,
        0.9956560134887695
      ],
      "min": [
        -0.9933907389640808,
        -0.9999988675117493,
        -0.9825247526168823
      ],
      "type": "VEC3"
    },
    {
      "bufferView": 3,
      "byteOffset": 16224,
      "componentType": 5126,
      "count": 4293,
      "max": [
        0.9999984502792358,
        0.999186635017395,
        0.9998593330383301,
        1.0
      ],
      "min": [
        -0.9998618364334106,
        -0.9991866946220398,
        -0.9998568296432495,
        -1.0
      ],
      "type": "VEC4"
    },
    {
      "bufferView": 1,
      "byteOffset": 8112,
      "componentType": 5126,
      "count": 4293,
      "max": [
        0.9488409757614136,
        0.9980080127716064
      ],
      "min": [
        0.0018939999863505363,
        0.004472999833524227
      ],
      "type": "VEC2"
    },
    {
      "bufferView": 0,
      "byteOffset": 12300,
      "componentType": 5125,
      "count": 8640,
      "type": "SCALAR"
    },
    {
      "bufferView": 2,
      "byteOffset": 127368,
      "componentType": 5126,
      "count": 228,
      "max": [
        3.753587007522583,
        0.4695580005645752,
        19.45672035217285
      ],
      "min": [
        -3.753587007522583,
        -1.5728930234909058,
        18.413089752197266
      ],
      "type": "VEC3"
    },
    {
      "bufferView": 2,
      "byteOffset": 130104,
      "componentType": 5126,
      "count": 228,
      "max": [
        0.9139172434806824,
        0.6519370675086975,
        0.9802519083023071
      ],
      "min": [
        -0.9139172434806824,
        -0.999732255935669,
        -0.9795257449150085
      ],
      "type": "VEC3"
    },
    {
      "bufferView": 3,
      "byteOffset": 84912,
      "componentType": 5126,
      "count": 228,
      "max": [
        0.9999839663505554,
        0.9641091823577881,
        0.9997316598892212,
        1.0
      ],
      "min": [
        -0.9992985129356384,
        -0.8705834150314331,
        -0.7277501821517944,
        1.0
      ],
      "type": "VEC4"
    },
    {
      "bufferView": 1,
      "byteOffset": 42456,
      "componentType": 5126,
      "count": 228,
      "max": [
        0.9476289749145508,
        0.6200870275497437
      ],
      "min": [
        0.0018939999863505363,
        0.06819800287485123
      ],
      "type": "VEC2"
    },
    {
      "bufferView": 0,
      "byteOffset": 46860,
      "componentType": 5125,
      "count": 720,
      "type": "SCALAR"
    }
  ],
  "asset": {
    "extras": {
      "author": "Leon Da Kimchi (https://sketchfab.com/dakimchi)",
      "license": "CC-BY-4.0 (http://creativecommons.org/licenses/by/4.0/)",
      "source": "https://sketchfab.com/3d-models/kirby-arcade-3dd08eb777bf402d9a8830f852694d0b",
      "title": "Kirby Arcade"
    },
    "generator": "Sketchfab-12.68.0",
    "version": "2.0"
  },
  "bufferViews": [
    {
      "buffer": 0,
      "byteLength": 49740,
      "name": "floatBufferViews",
      "target": 34963
    },
    {
      "buffer": 0,
      "byteLength": 44280,
      "byteOffset": 49740,
      "byteStride": 8,
      "name": "floatBufferViews",
      "target": 34962
    },
    {
      "buffer": 0,
      "byteLength": 132840,
      "byteOffset": 94020,
      "byteStride": 12,
      "name": "floatBufferViews",
      "target": 34962
    },
    {
      "buffer": 0,
      "byteLength": 88560,
      "byteOffset": 226860,
      "byteStride": 16,
      "name": "floatBufferViews",
      "target": 34962
    }
  ],
  "buffers": [
    {
      "byteLength": 315420,
      "uri": "scene.bin"
    }
  ],
  "images": [
    {
      "uri": "textures/initialShadingGroup_baseColor.png"
    },
    {
      "uri": "textures/initialShadingGroup_metallicRoughness.png"
    },
    {
      "uri": "textures/initialShadingGroup_normal.png"
    },
    {
      "uri": "textures/lambert2SG_baseColor.png"
    },
    {
      "uri": "textures/lambert2SG_metallicRoughness.png"
    },
    {
      "uri": "textures/lambert2SG_normal.png"
    },
    {
      "uri": "textures/lambert3SG_baseColor.png"
    },
    {
      "uri": "textures/lambert3SG_metallicRoughness.png"
    },
    {
      "uri": "textures/lambert3SG_normal.png"
    },
    {
      "uri": "textures/lambert4SG_baseColor.png"
    },
    {
      "uri": "textures/lambert4SG_metallicRoughness.png"
    },
    {
      "uri": "textures/lambert4SG_normal.png"
    },
    {
      "uri": "textures/lambert5SG_baseColor.png"
    },
    {
      "uri": "textures/lambert5SG_metallicRoughness.png"
    },
    {
      "uri": "textures/lambert5SG_normal.png"
    },
    {
      "uri": "textures/lambert6SG_baseColor.png"
    },
    {
      "uri": "textures/lambert6SG_metallicRoughness.png"
    },
    {
      "uri": "textures/lambert6SG_normal.png"
    },
    {
      "uri": "textures/lambert7SG_baseColor.png"
    },
    {
      "uri": "textures/lambert7SG_metallicRoughness.png"
    },
    {
      "uri": "textures/lambert7SG_normal.png"
    },
    {
      "uri": "textures/lambert8SG_baseColor.png"
    },
    {
      "uri": "textures/lambert8SG_metallicRoughness.png"
    },
    {
      "uri": "textures/lambert8SG_normal.png"
    }
  ],
  "materials": [
    {
      "doubleSided": true,
      "name": "initialShadingGroup",
      "normalTexture": {
        "index": 2
      },
      "pbrMetallicRoughness": {
        "baseColorTexture": {
          "index": 0
        },
        "metallicRoughnessTexture": {
          "index": 1
        }
      }
    },
    {
      "doubleSided": true,
      "name": "lambert2SG",
      "normalTexture": {
        "index": 5
      },
      "pbrMetallicRoughness": {
        "baseColorTexture": {
          "index": 3
        },
        "metallicRoughnessTexture": {
          "index": 4
        }
      }
    },
    {
      "doubleSided": true,
      "name": "lambert3SG",
      "normalTexture": {
        "index": 8
      },
      "pbrMetallicRoughness": {
        "baseColorTexture": {
          "index": 6
        },
        "metallicRoughnessTexture": {
          "index": 7
        }
      }
    },
    {
      "doubleSided": true,
      "name": "lambert4SG",
      "normalTexture": {
        "index": 11
      },
      "pbrMetallicRoughness": {
        "baseColorTexture": {
          "index": 9
        },
        "metallicRoughnessTexture": {
          "index": 10
        }
      }
    },
    {
      "doubleSided": true,
      "name": "lambert5SG",
      "normalTexture": {
        "index": 14
      },
      "pbrMetallicRoughness": {
        "baseColorTexture": {
          "index": 12
        },
        "metallicRoughnessTexture": {
          "index": 13
        }
      }
    },
    {
      "doubleSided": true,
      "name": "lambert6SG",
      "normalTexture": {
        "index": 17
      },
      "pbrMetallicRoughness": {
        "baseColorTexture": {
          "index": 15
        },
        "metallicRoughnessTexture": {
          "index": 16
        }
      }
    },
    {
      "doubleSided": true,
      "name": "lambert7SG",
      "normalTexture": {
        "index": 20
      },
      "pbrMetallicRoughness": {
        "baseColorTexture": {
          "index": 18
        },
        "metallicRoughnessTexture": {
          "index": 19
        }
      }
    },
    {
      "doubleSided": true,
      "name": "lambert8SG",
      "normalTexture": {
        "index": 23
      },
      "pbrMetallicRoughness": {
        "baseColorTexture": {
          "index": 21
        },
        "metallicRoughnessTexture": {
          "index": 22
        }
      }
    }
  ],
  "meshes": [
    {
      "name": "Object_0",
      "primitives": [
        {
          "attributes": {
            "NORMAL": 1,
            "POSITION": 0,
            "TANGENT": 2,
            "TEXCOORD_0": 3
          },
          "indices": 4,
          "material": 0,
          "mode": 4
        }
      ]
    },
    {
      "name": "Object_1",
      "primitives": [
        {
          "attributes": {
            "NORMAL": 6,
            "POSITION": 5,
            "TANGENT": 7,
            "TEXCOORD_0": 8
          },
          "indices": 9,
          "material": 1,
          "mode": 4
        }
      ]
    },
    {
      "name": "Object_2",
      "primitives": [
        {
          "attributes": {
            "NORMAL": 11,
            "POSITION": 10,
            "TANGENT": 12,
            "TEXCOORD_0": 13
          },
          "indices": 14,
          "material": 3,
          "mode": 4
        }
      ]
    },
    {
      "name": "Object_3",
      "primitives": [
        {
          "attributes": {
            "NORMAL": 16,
            "POSITION": 15,
            "TANGENT": 17,
            "TEXCOORD_0": 18
          },
          "indices": 19,
          "material": 6,
          "mode": 4
        }
      ]
    },
    {
      "name": "Object_4",
      "primitives": [
        {
          "attributes": {
            "NORMAL": 21,
            "POSITION": 20,
            "TANGENT": 22,
            "TEXCOORD_0": 23
          },
          "indices": 24,
          "material": 7,
          "mode": 4
        }
      ]
    },
    {
      "name": "Object_5",
      "primitives": [
        {
          "attributes": {
            "NORMAL": 26,
            "POSITION": 25,
            "TANGENT": 27,
            "TEXCOORD_0": 28
          },
          "indices": 29,
          "material": 2,
          "mode": 4
        }
      ]
    },
    {
      "name": "Object_6",
      "primitives": [
        {
          "attributes": {
            "NORMAL": 31,
            "POSITION": 30,
            "TANGENT": 32,
            "TEXCOORD_0": 33
          },
          "indices": 34,
          "material": 4,
          "mode": 4
        }
      ]
    },
    {
      "name": "Object_7",
      "primitives": [
        {
          "attributes": {
            "NORMAL": 36,
            "POSITION": 35,
            "TANGENT": 37,
            "TEXCOORD_0": 38
          },
          "indices": 39,
          "material": 5,
          "mode": 4
        }
      ]
    }
  ],
  "nodes": [
    {
      "children": [
        1
      ],
      "matrix": [
        1.0,
        0.0,
        0.0,
        0.0,
        0.0,
        2.220446049250313e-16,
        -1.0,
        0.0,
        0.0,
        1.0,
        2.220446049250313e-16,
        0.0,
        0.0,
        0.0,
        0.0,
        1.0
      ],
      "name": "Sketchfab_model"
    },
    {
      "children": [
        2,
        3,
        4,
        5,
        6,
        7,
        8,
        9
      ],
      "name": "8d1d6ec928c74a5c90798a1e4a20256b.obj.cleaner.materialmerger.gles"
    },
    {
      "mesh": 0,
      "name": "Object_2"
    },
    {
      "mesh": 1,
      "name": "Object_3"
    },
    {
      "mesh": 2,
      "name": "Object_4"
    },
    {
      "mesh": 3,
      "name": "Object_5"
    },
    {
      "mesh": 4,
      "name": "Object_6"
    },
    {
      "mesh": 5,
      "name": "Object_7"
    },
    {
      "mesh": 6,
      "name": "Object_8"
    },
    {
      "mesh": 7,
      "name": "Object_9"
    }
  ],
  "samplers": [
    {
      "magFilter": 9729,
      "minFilter": 9987,
      "wrapS": 10497,
      "wrapT": 10497
    }
  ],
  "scene": 0,
  "scenes": [
    {
      "name": "Sketchfab_Scene",
      "nodes": [
        0
      ]
    }
  ],
  "textures": [
    {
      "sampler": 0,
      "source": 0
    },
    {
      "sampler": 0,
      "source": 1
    },
    {
      "sampler": 0,
      "source": 2
    },
    {
      "sampler": 0,
      "source": 3
    },
    {
      "sampler": 0,
      "source": 4
    },
    {
      "sampler": 0,
      "source": 5
    },
    {
      "sampler": 0,
      "source": 6
    },
    {
      "sampler": 0,
      "source": 7
    },
    {
      "sampler": 0,
      "source": 8
    },
    {
      "sampler": 0,
      "source": 9
    },
    {
      "sampler": 0,
      "source": 10
    },
    {
      "sampler": 0,
      "source": 11
    },
    {
      "sampler": 0,
      "source": 12
    },
    {
      "sampler": 0,
      "source": 13
    },
    {
      "sampler": 0,
      "source": 14
    },
    {
      "sampler": 0,
      "source": 15
    },
    {
      "sampler": 0,
      "source": 16
    },
    {
      "sampler": 0,
      "source": 17
    },
    {
      "sampler": 0,
      "source": 18
    },
    {
      "sampler": 0,
      "source": 19
    },
    {
      "sampler": 0,
      "source": 20
    },
    {
      "sampler": 0,
      "source": 21
    },
    {
      "sampler": 0,
      "source": 22
    },
    {
      "sampler": 0,
      "source": 23
    }
  ]
}
