{
  "accessors": [
    {
      "bufferView": 2,
      "componentType": 5126,
      "count": 110,
      "max": [
        1.4570930004119873,
        7.154811859130859,
        2.0099358558654785
      ],
      "min": [
        -1.1804101467132568,
        4.474250793457031,
        0.3010021448135376
      ],
      "type": "VEC3"
    },
    {
      "bufferView": 2,
      "byteOffset": 1320,
      "componentType": 5126,
      "count": 110,
      "max": [
        0.9992388486862183,
        0.7106027603149414,
        1.0
      ],
      "min": [
        -0.9992388486862183,
        -0.7106029391288757,
        -0.7103021740913391
      ],
      "type": "VEC3"
    },
    {
      "bufferView": 1,
      "componentType": 5126,
      "count": 110,
      "max": [
        -0.9645191431045532,
        0.6598166823387146
      ],
      "min": [
        -1.2844254970550537,
        0.39663925766944885
      ],
      "type": "VEC2"
    },
    {
      "bufferView": 0,
      "componentType": 5125,
      "count": 318,
      "type": "SCALAR"
    },
    {
      "bufferView": 2,
      "byteOffset": 2640,
      "componentType": 5126,
      "count": 598,
      "max": [
        1.1776409149169922,
        5.607877254486084,
        2.486253261566162
      ],
      "min": [
        -0.6393585205078125,
        4.298852920532227,
        1.18898606300354
      ],
      "type": "VEC3"
    },
    {
      "bufferView": 2,
      "byteOffset": 9816,
      "componentType": 5126,
      "count": 598,
      "max": [
        0.9990419149398804,
        0.9724620580673218,
        0.9703109860420227
      ],
      "min": [
        -0.9994117617607117,
        -0.9966970086097717,
        -0.9961547255516052
      ],
      "type": "VEC3"
    },
    {
      "bufferView": 1,
      "byteOffset": 880,
      "componentType": 5126,
      "count": 598,
      "max": [
        -0.8992502689361572,
        0.7259349226951599
      ],
      "min": [
        -1.0753915309906006,
        0.5497725605964661
      ],
      "type": "VEC2"
    },
    {
      "bufferView": 0,
      "byteOffset": 1272,
      "componentType": 5125,
      "count": 1104,
      "type": "SCALAR"
    },
    {
      "bufferView": 2,
      "byteOffset": 16992,
      "componentType": 5126,
      "count": 7343,
      "max": [
        2.357407569885254,
        11.138299942016602,
        7.956613540649414
      ],
      "min": [
        -2.1001524925231934,
        0.0015643760561943054,
        -2.1605944633483887
      ],
      "type": "VEC3"
    },
    {
      "bufferView": 2,
      "byteOffset": 105108,
      "componentType": 5126,
      "count": 7343,
      "max": [
        1.0,
        1.0,
        1.0
      ],
      "min": [
        -1.0,
        -1.0,
        -1.0
      ],
      "type": "VEC3"
    },
    {
      "bufferView": 1,
      "byteOffset": 5664,
      "componentType": 5126,
      "count": 7343,
      "max": [
        0.9728316068649292,
        0.48624148964881897
      ],
      "min": [
        -1.2854955196380615,
        -0.03785309940576553
      ],
      "type": "VEC2"
    },
    {
      "bufferView": 0,
      "byteOffset": 5688,
      "componentType": 5125,
      "count": 17415,
      "type": "SCALAR"
    },
    {
      "bufferView": 2,
      "byteOffset": 193224,
      "componentType": 5126,
      "count": 250,
      "max": [
        0.39910173416137695,
        10.815715789794922,
        1.3353418111801147
      ],
      "min": [
        -0.1536913365125656,
        10.262922286987305,
        0.7825486660003662
      ],
      "type": "VEC3"
    },
    {
      "bufferView": 2,
      "byteOffset": 196224,
      "componentType": 5126,
      "count": 250,
      "max": [
        1.0,
        1.0,
        1.0
      ],
      "min": [
        -1.0,
        -1.0,
        -1.0
      ],
      "type": "VEC3"
    },
    {
      "bufferView": 1,
      "byteOffset": 64408,
      "componentType": 5126,
      "count": 250,
      "max": [
        -1.063790202140808,
        1.0043283700942993
      ],
      "min": [
        -1.3320534229278564,
        0.9279794096946716
      ],
      "type": "VEC2"
    },
    {
      "bufferView": 0,
      "byteOffset": 75348,
      "componentType": 5125,
      "count": 1080,
      "type": "SCALAR"
    },
    {
      "bufferView": 2,
      "byteOffset": 199224,
      "componentType": 5126,
      "count": 250,
      "max": [
        1.0087213516235352,
        10.815715789794922,
        1.3353418111801147
      ],
      "min": [
        0.4559282064437866,
        10.262922286987305,
        0.7825486660003662
      ],
      "type": "VEC3"
    },
    {
      "bufferView": 2,
      "byteOffset": 202224,
      "componentType": 5126,
      "count": 250,
      "max": [
        1.0,
        1.0,
        1.0
      ],
      "min": [
        -1.0,
        -1.0,
        -1.0
      ],
      "type": "VEC3"
    },
    {
      "bufferView": 1,
      "byteOffset": 66408,
      "componentType": 5126,
      "count": 250,
      "max": [
        -1.0713069438934326,
        0.9071124792098999
      ],
      "min": [
        -1.3354930877685547,
        0.8495327234268188
      ],
      "type": "VEC2"
    },
    {
      "bufferView": 0,
      "byteOffset": 79668,
      "componentType": 5125,
      "count": 1080,
      "type": "SCALAR"
    },
    {
      "bufferView": 2,
      "byteOffset": 205224,
      "componentType": 5126,
      "count": 250,
      "max": [
        -0.21054904162883759,
        10.815715789794922,
        1.3353418111801147
      ],
      "min": [
        -0.7633421421051025,
        10.262922286987305,
        0.7825486660003662
      ],
      "type": "VEC3"
    },
    {
      "bufferView": 2,
      "byteOffset": 208224,
      "componentType": 5126,
      "count": 250,
      "max": [
        1.0,
        1.0,
        1.0
      ],
      "min": [
        -1.0,
        -1.0,
        -1.0
      ],
      "type": "VEC3"
    },
    {
      "bufferView": 1,
      "byteOffset": 68408,
      "componentType": 5126,
      "count": 250,
      "max": [
        -1.0631935596466064,
        1.113622784614563
      ],
      "min": [
        -1.285695195198059,
        1.086057186126709
      ],
      "type": "VEC2"
    },
    {
      "bufferView": 0,
      "byteOffset": 83988,
      "componentType": 5125,
      "count": 1080,
      "type": "SCALAR"
    },
    {
      "bufferView": 2,
      "byteOffset": 211224,
      "componentType": 5126,
      "count": 12,
      "max": [
        -0.10082332789897919,
        10.907279968261719,
        0.2211160510778427
      ],
      "min": [
        -0.892931342124939,
        10.20351791381836,
        -0.19011230766773224
      ],
      "type": "VEC3"
    },
    {
      "bufferView": 2,
      "byteOffset": 211368,
      "componentType": 5126,
      "count": 12,
      "max": [
        -0.0692320391535759,
        0.8692879676818848,
        -0.4499340057373047
      ],
      "min": [
        -0.8105762004852295,
        0.11253157258033752,
        -0.9386057257652283
      ],
      "type": "VEC3"
    },
    {
      "bufferView": 1,
      "byteOffset": 70408,
      "componentType": 5126,
      "count": 12,
      "max": [
        0.9038339853286743,
        0.3662434220314026
      ],
      "min": [
        0.894864559173584,
        0.28923261165618896
      ],
      "type": "VEC2"
    },
    {
      "bufferView": 0,
      "byteOffset": 88308,
      "componentType": 5125,
      "count": 18,
      "type": "SCALAR"
    }
  ],
  "asset": {
    "extras": {
      "author": "Iqra khalid (https://sketchfab.com/Iqrakhalid)",
      "license": "CC-BY-4.0 (http://creativecommons.org/licenses/by/4.0/)",
      "source": "https://sketchfab.com/3d-models/sugar-rush-arcade-machine-65044697867445fb8c18d78c8218fe81",
      "title": "Sugar Rush Arcade Machine"
    },
    "generator": "Sketchfab-12.67.0",
    "version": "2.0"
  },
  "bufferViews": [
    {
      "buffer": 0,
      "byteLength": 88380,
      "name": "floatBufferViews",
      "target": 34963
    },
    {
      "buffer": 0,
      "byteLength": 70504,
      "byteOffset": 88380,
      "byteStride": 8,
      "name": "floatBufferViews",
      "target": 34962
    },
    {
      "buffer": 0,
      "byteLength": 211512,
      "byteOffset": 158884,
      "byteStride": 12,
      "name": "floatBufferViews",
      "target": 34962
    }
  ],
  "buffers": [
    {
      "byteLength": 370396,
      "uri": "scene.bin"
    }
  ],
  "images": [
    {
      "uri": "textures/lambert3_baseColor.png"
    }
  ],
  "materials": [
    {
      "doubleSided": true,
      "name": "blinn1",
      "pbrMetallicRoughness": {
        "baseColorFactor": [
          0.0,
          0.0,
          0.0,
          1.0
        ],
        "metallicFactor": 0.0,
        "roughnessFactor": 0.7936680376418945
      }
    },
    {
      "doubleSided": true,
      "name": "blinn6",
      "pbrMetallicRoughness": {
        "baseColorFactor": [
          0.0,
          0.230767,
          0.5,
          1.0
        ],
        "metallicFactor": 0.0,
        "roughnessFactor": 0.9207483816249483
      }
    },
    {
      "doubleSided": true,
      "name": "lambert3",
      "pbrMetallicRoughness": {
        "baseColorTexture": {
          "index": 0
        },
        "metallicFactor": 0.0,
        "roughnessFactor": 0.24193749427795408
      }
    },
    {
      "doubleSided": true,
      "name": "blinn3",
      "pbrMetallicRoughness": {
        "baseColorFactor": [
          0.482,
          0.333697,
          0.0,
          1.0
        ],
        "metallicFactor": 0.0,
        "roughnessFactor": 0.9346091941087168
      }
    },
    {
      "doubleSided": true,
      "name": "blinn4",
      "pbrMetallicRoughness": {
        "baseColorFactor": [
          0.013383499999999994,
          0.17399999999999993,
          0.0,
          1.0
        ],
        "metallicFactor": 0.0,
        "roughnessFactor": 0.9330128842897925
      }
    },
    {
      "doubleSided": true,
      "name": "blinn2",
      "pbrMetallicRoughness": {
        "baseColorFactor": [
          0.17399999999999993,
          0.0,
          0.0,
          1.0
        ],
        "metallicFactor": 0.0,
        "roughnessFactor": 0.9352608399089688
      }
    },
    {
      "doubleSided": true,
      "name": "lambert7",
      "pbrMetallicRoughness": {
        "baseColorFactor": [
          0.7567713113336548,
          0.01029463743271118,
          0.4288667086961209,
          1.0
        ],
        "metallicFactor": 0.0,
        "roughnessFactor": 0.6
      }
    }
  ],
  "meshes": [
    {
      "name": "pDisc2_blinn1_0",
      "primitives": [
        {
          "attributes": {
            "NORMAL": 1,
            "POSITION": 0,
            "TEXCOORD_0": 2
          },
          "indices": 3,
          "material": 0,
          "mode": 4
        }
      ]
    },
    {
      "name": "pDisc2_blinn6_0",
      "primitives": [
        {
          "attributes": {
            "NORMAL": 5,
            "POSITION": 4,
            "TEXCOORD_0": 6
          },
          "indices": 7,
          "material": 1,
          "mode": 4
        }
      ]
    },
    {
      "name": "pDisc2_lambert3_0",
      "primitives": [
        {
          "attributes": {
            "NORMAL": 9,
            "POSITION": 8,
            "TEXCOORD_0": 10
          },
          "indices": 11,
          "material": 2,
          "mode": 4
        }
      ]
    },
    {
      "name": "pDisc2_blinn3_0",
      "primitives": [
        {
          "attributes": {
            "NORMAL": 13,
            "POSITION": 12,
            "TEXCOORD_0": 14
          },
          "indices": 15,
          "material": 3,
          "mode": 4
        }
      ]
    },
    {
      "name": "pDisc2_blinn4_0",
      "primitives": [
        {
          "attributes": {
            "NORMAL": 17,
            "POSITION": 16,
            "TEXCOORD_0": 18
          },
          "indices": 19,
          "material": 4,
          "mode": 4
        }
      ]
    },
    {
      "name": "pDisc2_blinn2_0",
      "primitives": [
        {
          "attributes": {
            "NORMAL": 21,
            "POSITION": 20,
            "TEXCOORD_0": 22
          },
          "indices": 23,
          "material": 5,
          "mode": 4
        }
      ]
    },
    {
      "name": "pDisc2_lambert7_0",
      "primitives": [
        {
          "attributes": {
            "NORMAL": 25,
            "POSITION": 24,
            "TEXCOORD_0": 26
          },
          "indices": 27,
          "material": 6,
          "mode": 4
        }
      ]
    }
  ],
  "nodes": [
    {
      "children": [
        1
      ],
      "matrix": [
        1.0,
        0.0,
        0.0,
        0.0,
        0.0,
        2.220446049250313e-16,
        -1.0,
        0.0,
        0.0,
        1.0,
        2.220446049250313e-16,
        0.0,
        0.0,
        0.0,
        0.0,
        1.0
      ],
      "name": "Sketchfab_model"
    },
    {
      "children": [
        2
      ],
      "matrix": [
        1.0,
        0.0,
        0.0,
        0.0,
        0.0,
        0.0,
        1.0,
        0.0,
        0.0,
        -1.0,
        0.0,
        0.0,
        0.0,
        0.0,
        0.0,
        1.0
      ],
      "name": "0dbf13d13a4941b8a8eb01adc293a475.fbx"
    },
    {
      "children": [
        3
      ],
      "name": "RootNode"
    },
    {
      "children": [
        4,
        5,
        6,
        7,
        8,
        9,
        10
      ],
      "name": "pDisc2"
    },
    {
      "mesh": 0,
      "name": "pDisc2_blinn1_0"
    },
    {
      "mesh": 1,
      "name": "pDisc2_blinn6_0"
    },
    {
      "mesh": 2,
      "name": "pDisc2_lambert3_0"
    },
    {
      "mesh": 3,
      "name": "pDisc2_blinn3_0"
    },
    {
      "mesh": 4,
      "name": "pDisc2_blinn4_0"
    },
    {
      "mesh": 5,
      "name": "pDisc2_blinn2_0"
    },
    {
      "mesh": 6,
      "name": "pDisc2_lambert7_0"
    }
  ],
  "samplers": [
    {
      "magFilter": 9729,
      "minFilter": 9987,
      "wrapS": 10497,
      "wrapT": 10497
    }
  ],
  "scene": 0,
  "scenes": [
    {
      "name": "Sketchfab_Scene",
      "nodes": [
        0
      ]
    }
  ],
  "textures": [
    {
      "sampler": 0,
      "source": 0
    }
  ]
}
