{
  "accessors": [
    {
      "bufferView": 2,
      "componentType": 5126,
      "count": 36,
      "max": [
        0.5548980236053467,
        1.158262014389038,
        0.35498300194740295
      ],
      "min": [
        0.48528599739074707,
        0.6993269920349121,
        -0.3579469919204712
      ],
      "type": "VEC3"
    },
    {
      "bufferView": 2,
      "byteOffset": 432,
      "componentType": 5126,
      "count": 36,
      "max": [
        0.9980399012565613,
        0.24520014226436615,
        0.14256203174591064
      ],
      "min": [
        0.9600874781608582,
        -0.2070489525794983,
        -0.14256203174591064
      ],
      "type": "VEC3"
    },
    {
      "bufferView": 3,
      "componentType": 5126,
      "count": 36,
      "max": [
        0.1427178829908371,
        0.008057731203734875,
        -0.9897463917732239,
        1.0
      ],
      "min": [
        -0.1428193897008896,
        -0.011164998635649681,
        -0.9991578459739685,
        1.0
      ],
      "type": "VEC4"
    },
    {
      "bufferView": 1,
      "componentType": 5126,
      "count": 36,
      "max": [
        0.24963200092315674,
        0.8124139904975891
      ],
      "min": [
        0.0005290000117383897,
        0.6507179737091064
      ],
      "type": "VEC2"
    },
    {
      "bufferView": 0,
      "componentType": 5125,
      "count": 150,
      "type": "SCALAR"
    },
    {
      "bufferView": 2,
      "byteOffset": 864,
      "componentType": 5126,
      "count": 1688,
      "max": [
        0.051316998898983,
        0.018823999911546707,
        0.00874400045722723
      ],
      "min": [
        -0.06834399700164795,
        -0.21675699949264526,
        -0.004017000086605549
      ],
      "type": "VEC3"
    },
    {
      "bufferView": 2,
      "byteOffset": 21120,
      "componentType": 5126,
      "count": 1688,
      "max": [
        1.0,
        1.0,
        1.0
      ],
      "min": [
        -1.0,
        -1.0,
        -3.0000019251019694e-06
      ],
      "type": "VEC3"
    },
    {
      "bufferView": 3,
      "byteOffset": 576,
      "componentType": 5126,
      "count": 1688,
      "max": [
        1.0,
        1.0,
        1.0,
        1.0
      ],
      "min": [
        -1.0,
        -1.0,
        -1.0,
        -1.0
      ],
      "type": "VEC4"
    },
    {
      "bufferView": 1,
      "byteOffset": 288,
      "componentType": 5126,
      "count": 1688,
      "max": [
        0.9930610060691833,
        0.9765409827232361
      ],
      "min": [
        0.21973800659179688,
        0.0005290000117383897
      ],
      "type": "VEC2"
    },
    {
      "bufferView": 0,
      "byteOffset": 600,
      "componentType": 5125,
      "count": 5934,
      "type": "SCALAR"
    },
    {
      "bufferView": 2,
      "byteOffset": 41376,
      "componentType": 5126,
      "count": 436,
      "max": [
        0.019982999190688133,
        0.16471099853515625,
        0.14828500151634216
      ],
      "min": [
        -0.03547599911689758,
        -0.19941799342632294,
        -0.1417970061302185
      ],
      "type": "VEC3"
    },
    {
      "bufferView": 2,
      "byteOffset": 46608,
      "componentType": 5126,
      "count": 436,
      "max": [
        0.9997216463088989,
        1.0,
        0.9914446473121643
      ],
      "min": [
        -0.1564360111951828,
        -1.0,
        -0.9876885414123535
      ],
      "type": "VEC3"
    },
    {
      "bufferView": 3,
      "byteOffset": 27584,
      "componentType": 5126,
      "count": 436,
      "max": [
        0.9981105923652649,
        1.0,
        0.9998920559883118,
        1.0
      ],
      "min": [
        -0.9876973032951355,
        -1.0,
        -0.987688422203064,
        1.0
      ],
      "type": "VEC4"
    },
    {
      "bufferView": 1,
      "byteOffset": 13792,
      "componentType": 5126,
      "count": 436,
      "max": [
        0.9827690124511719,
        0.9810979962348938
      ],
      "min": [
        0.10621800273656845,
        0.16492299735546112
      ],
      "type": "VEC2"
    },
    {
      "bufferView": 0,
      "byteOffset": 24336,
      "componentType": 5125,
      "count": 1044,
      "type": "SCALAR"
    },
    {
      "bufferView": 2,
      "byteOffset": 51840,
      "componentType": 5126,
      "count": 82,
      "max": [
        0.4329400062561035,
        1.4453339576721191,
        0.35498300194740295
      ],
      "min": [
        -0.35856398940086365,
        -0.3889009952545166,
        -0.3579469919204712
      ],
      "type": "VEC3"
    },
    {
      "bufferView": 2,
      "byteOffset": 52824,
      "componentType": 5126,
      "count": 82,
      "max": [
        0.9997866153717041,
        0.9906936287879944,
        0.0
      ],
      "min": [
        -1.0,
        -0.9790244698524475,
        0.0
      ],
      "type": "VEC3"
    },
    {
      "bufferView": 3,
      "byteOffset": 34560,
      "componentType": 5126,
      "count": 82,
      "max": [
        0.9906461238861084,
        0.9959424734115601,
        1.0,
        1.0
      ],
      "min": [
        -0.9200434684753418,
        -0.9986165761947632,
        -1.0,
        1.0
      ],
      "type": "VEC4"
    },
    {
      "bufferView": 1,
      "byteOffset": 17280,
      "componentType": 5126,
      "count": 82,
      "max": [
        0.9752770066261292,
        0.9540500044822693
      ],
      "min": [
        0.0005290000117383897,
        0.0005290000117383897
      ],
      "type": "VEC2"
    },
    {
      "bufferView": 0,
      "byteOffset": 28512,
      "componentType": 5125,
      "count": 198,
      "type": "SCALAR"
    },
    {
      "bufferView": 2,
      "byteOffset": 53808,
      "componentType": 5126,
      "count": 328,
      "max": [
        0.44667699933052063,
        1.4555100202560425,
        0.36687299609184265
      ],
      "min": [
        -0.37219101190567017,
        -0.3909359872341156,
        -0.36687299609184265
      ],
      "type": "VEC3"
    },
    {
      "bufferView": 2,
      "byteOffset": 57744,
      "componentType": 5126,
      "count": 328,
      "max": [
        0.9984174966812134,
        0.9911495447158813,
        1.0
      ],
      "min": [
        -1.0,
        -1.0,
        -1.0
      ],
      "type": "VEC3"
    },
    {
      "bufferView": 3,
      "byteOffset": 35872,
      "componentType": 5126,
      "count": 328,
      "max": [
        0.9996326565742493,
        0.9914451837539673,
        1.0,
        1.0
      ],
      "min": [
        -0.999632716178894,
        -0.9984174966812134,
        -1.0,
        -1.0
      ],
      "type": "VEC4"
    },
    {
      "bufferView": 1,
      "byteOffset": 17936,
      "componentType": 5126,
      "count": 328,
      "max": [
        0.9994710087776184,
        0.9673129916191101
      ],
      "min": [
        0.0002849999873433262,
        0.0005290000117383897
      ],
      "type": "VEC2"
    },
    {
      "bufferView": 0,
      "byteOffset": 29304,
      "componentType": 5125,
      "count": 864,
      "type": "SCALAR"
    }
  ],
  "asset": {
    "extras": {
      "author": "Delinx (https://sketchfab.com/delinx)",
      "license": "CC-BY-4.0 (http://creativecommons.org/licenses/by/4.0/)",
      "source": "https://sketchfab.com/3d-models/asteroids-arcade-0163d232b321401fb2b9cebd387d0aa3",
      "title": "Asteroids Arcade"
    },
    "generator": "Sketchfab-12.65.0",
    "version": "2.0"
  },
  "bufferViews": [
    {
      "buffer": 0,
      "byteLength": 32760,
      "name": "floatBufferViews",
      "target": 34963
    },
    {
      "buffer": 0,
      "byteLength": 20560,
      "byteOffset": 32760,
      "byteStride": 8,
      "name": "floatBufferViews",
      "target": 34962
    },
    {
      "buffer": 0,
      "byteLength": 61680,
      "byteOffset": 53320,
      "byteStride": 12,
      "name": "floatBufferViews",
      "target": 34962
    },
    {
      "buffer": 0,
      "byteLength": 41120,
      "byteOffset": 115000,
      "byteStride": 16,
      "name": "floatBufferViews",
      "target": 34962
    }
  ],
  "buffers": [
    {
      "byteLength": 156120,
      "uri": "scene.bin"
    }
  ],
  "images": [
    {
      "uri": "textures/Material.001_baseColor.png"
    },
    {
      "uri": "textures/Material.001_metallicRoughness.png"
    },
    {
      "uri": "textures/Material.001_normal.png"
    }
  ],
  "materials": [
    {
      "alphaMode": "BLEND",
      "doubleSided": true,
      "name": "Material.001",
      "normalTexture": {
        "index": 2
      },
      "pbrMetallicRoughness": {
        "baseColorTexture": {
          "index": 0
        },
        "metallicRoughnessTexture": {
          "index": 1
        }
      }
    }
  ],
  "meshes": [
    {
      "name": "defaultMaterial",
      "primitives": [
        {
          "attributes": {
            "NORMAL": 1,
            "POSITION": 0,
            "TANGENT": 2,
            "TEXCOORD_0": 3
          },
          "indices": 4,
          "material": 0,
          "mode": 4
        }
      ]
    },
    {
      "name": "defaultMaterial",
      "primitives": [
        {
          "attributes": {
            "NORMAL": 6,
            "POSITION": 5,
            "TANGENT": 7,
            "TEXCOORD_0": 8
          },
          "indices": 9,
          "material": 0,
          "mode": 4
        }
      ]
    },
    {
      "name": "defaultMaterial",
      "primitives": [
        {
          "attributes": {
            "NORMAL": 11,
            "POSITION": 10,
            "TANGENT": 12,
            "TEXCOORD_0": 13
          },
          "indices": 14,
          "material": 0,
          "mode": 4
        }
      ]
    },
    {
      "name": "defaultMaterial",
      "primitives": [
        {
          "attributes": {
            "NORMAL": 16,
            "POSITION": 15,
            "TANGENT": 17,
            "TEXCOORD_0": 18
          },
          "indices": 19,
          "material": 0,
          "mode": 4
        }
      ]
    },
    {
      "name": "defaultMaterial",
      "primitives": [
        {
          "attributes": {
            "NORMAL": 21,
            "POSITION": 20,
            "TANGENT": 22,
            "TEXCOORD_0": 23
          },
          "indices": 24,
          "material": 0,
          "mode": 4
        }
      ]
    }
  ],
  "nodes": [
    {
      "children": [
        1
      ],
      "matrix": [
        1.0,
        0.0,
        0.0,
        0.0,
        0.0,
        2.220446049250313e-16,
        -1.0,
        0.0,
        0.0,
        1.0,
        2.220446049250313e-16,
        0.0,
        0.0,
        0.0,
        0.0,
        1.0
      ],
      "name": "Sketchfab_model"
    },
    {
      "children": [
        2,
        4,
        6,
        8,
        10
      ],
      "matrix": [
        1.0,
        0.0,
        0.0,
        0.0,
        0.0,
        -4.371139006309477e-08,
        0.999999999999999,
        0.0,
        0.0,
        -0.999999999999999,
        -4.371139006309477e-08,
        0.0,
        0.0,
        0.0,
        0.0,
        1.0
      ],
      "name": "Collada visual scene group"
    },
    {
      "children": [
        3
      ],
      "matrix": [
        100.0,
        0.0,
        0.0,
        0.0,
        0.0,
        100.0,
        4e-06,
        0.0,
        0.0,
        -4e-06,
        100.0,
        0.0,
        -46.246311,
        0.0,
        0.0,
        1.0
      ],
      "name": "screen_low"
    },
    {
      "mesh": 0,
      "name": "defaultMaterial"
    },
    {
      "children": [
        5
      ],
      "matrix": [
        96.247704,
        -27.13632,
        0.0,
        0.0,
        -1e-06,
        -4e-06,
        -100.0,
        0.0,
        27.13632,
        96.247704,
        -4e-06,
        0.0,
        21.766472,
        65.585922,
        -9.897114,
        1.0
      ],
      "name": "buttons_low"
    },
    {
      "mesh": 1,
      "name": "defaultMaterial"
    },
    {
      "children": [
        7
      ],
      "matrix": [
        98.768845,
        -15.643453,
        0.0,
        0.0,
        -1e-06,
        -4e-06,
        -100.0,
        0.0,
        15.643453,
        98.768845,
        -4e-06,
        0.0,
        29.50148,
        13.256682,
        0.0,
        1.0
      ],
      "name": "coinslot_low"
    },
    {
      "mesh": 2,
      "name": "defaultMaterial"
    },
    {
      "children": [
        9
      ],
      "matrix": [
        100.0,
        0.0,
        0.0,
        0.0,
        0.0,
        100.0,
        4e-06,
        0.0,
        0.0,
        -4e-06,
        100.0,
        0.0,
        0.0,
        0.0,
        0.0,
        1.0
      ],
      "name": "body_low"
    },
    {
      "mesh": 3,
      "name": "defaultMaterial"
    },
    {
      "children": [
        11
      ],
      "matrix": [
        100.0,
        0.0,
        0.0,
        0.0,
        0.0,
        100.0,
        4e-06,
        0.0,
        0.0,
        -4e-06,
        100.0,
        0.0,
        0.0,
        0.0,
        0.0,
        1.0
      ],
      "name": "sides_low"
    },
    {
      "mesh": 4,
      "name": "defaultMaterial"
    }
  ],
  "samplers": [
    {
      "magFilter": 9729,
      "minFilter": 9987,
      "wrapS": 10497,
      "wrapT": 10497
    }
  ],
  "scene": 0,
  "scenes": [
    {
      "name": "Sketchfab_Scene",
      "nodes": [
        0
      ]
    }
  ],
  "textures": [
    {
      "sampler": 0,
      "source": 0
    },
    {
      "sampler": 0,
      "source": 1
    },
    {
      "sampler": 0,
      "source": 2
    }
  ]
}
